# xmcd
#
# Track frame offsets: 
#        150
#        30194
#        62096
#        86175
#        114313
#        143977
#        179871
#        211100
#
# Disc length: 3554 seconds
#
# Revision: 2
# Processed by: cddbd v1.5.2PL0 Copyright (c) Steve Scherf et al.
# Submitted via: ExactAudioCopy v1.0b3
#
DISCID=6d0de008
DTITLE=Steve Coleman - The mancy of sound
DYEAR=2008
DGENRE=Jazz
TTITLE0=Jan 18
TTITLE1=Formation 1
TTITLE2=Fire-Ogbe (Odú Ifá suite)
TTITLE3=Earth-Idi (Odú Ifá suite)
TTITLE4=Air-Iwori (Odú Ifá suite)
TTITLE5=Water-Oyeku (Odú Ifá suite)
TTITLE6=Formation 2
TTITLE7=Noctiluca (Jan 11)
EXTD=YEAR: 2011
EXTT0=
EXTT1=
EXTT2=
EXTT3=
EXTT4=
EXTT5=
EXTT6=
EXTT7=
PLAYORDER=
